<?xml version="1.0" encoding="utf-8"?>
<!-- Generator: Adobe Illustrator 23.0.3, SVG Export Plug-In . SVG Version: 6.00 Build 0)  -->
<svg version="1.1" id="Badges" xmlns="http://www.w3.org/2000/svg" xmlns:xlink="http://www.w3.org/1999/xlink" x="0px" y="0px"
	 viewBox="185.5 -25.5 128 40" enable-background="new 185.5 -25.5 128 40" xml:space="preserve">
<g>
	<path d="M309.5,14.5h-120c-2.2,0-4-1.8-4-4v-32c0-2.2,1.8-4,4-4h120c2.2,0,4,1.8,4,4v32C313.5,12.7,311.7,14.5,309.5,14.5z"/>
	<linearGradient id="SVGID_1_" gradientUnits="userSpaceOnUse" x1="201.7674" y1="-18.9264" x2="207.3656" y2="4.0645">
		<stop  offset="0" style="stop-color:#006884"/>
		<stop  offset="1" style="stop-color:#8AD1D0"/>
	</linearGradient>
	<path fill-rule="evenodd" clip-rule="evenodd" fill="url(#SVGID_1_)" d="M195.3-5.9v-10.5c0-0.6,0.5-1.1,1-1.1c0.5,0,0.7,0.1,1,0.3
		l19.3,10.6c0.4,0.2,0.6,0.5,0.6,0.8c0,0.3-0.2,0.6-0.6,0.8L197.3,5.5c-0.2,0.1-0.5,0.3-1,0.3c-0.5,0-1-0.5-1-1.1V-5.9z"/>
	<linearGradient id="SVGID_2_" gradientUnits="userSpaceOnUse" x1="194.9406" y1="-15.6562" x2="210.1967" y2="-7.4087">
		<stop  offset="0" style="stop-color:#24BBB6"/>
		<stop  offset="1" style="stop-color:#DBE692"/>
	</linearGradient>
	<path fill-rule="evenodd" clip-rule="evenodd" fill="url(#SVGID_2_)" d="M207.8-5.8l-11.7-11.7c0.1,0,0.1,0,0.2,0
		c0.5,0,0.7,0.1,1,0.3l14.2,7.8L207.8-5.8z"/>
	<linearGradient id="SVGID_3_" gradientUnits="userSpaceOnUse" x1="212.4944" y1="-1.8799" x2="212.4944" y2="-9.8283">
		<stop  offset="0" style="stop-color:#FCC072"/>
		<stop  offset="1" style="stop-color:#F58A5B"/>
	</linearGradient>
	<path fill-rule="evenodd" clip-rule="evenodd" fill="url(#SVGID_3_)" d="M211.4-2.3l-3.6-3.6l3.7-3.7l5.1,2.8
		c0.4,0.2,0.6,0.5,0.6,0.8c0,0.3-0.2,0.6-0.6,0.8L211.4-2.3z"/>
	<linearGradient id="SVGID_4_" gradientUnits="userSpaceOnUse" x1="197.8947" y1="7.7692" x2="209.9464" y2="-4.4961">
		<stop  offset="0" style="stop-color:#712B8F"/>
		<stop  offset="1" style="stop-color:#EA1D27"/>
	</linearGradient>
	<path fill-rule="evenodd" clip-rule="evenodd" fill="url(#SVGID_4_)" d="M196.2,5.7L196.2,5.7l11.6-11.6l3.6,3.6l-14.1,7.7
		C197,5.6,196.8,5.7,196.2,5.7C196.3,5.7,196.3,5.7,196.2,5.7z"/>
	<path fill-rule="evenodd" clip-rule="evenodd" fill="#FFFFFF" d="M256.6,8.4c-0.5-0.4-0.9-1.1-1.1-1.5l1.6-0.7
		c0.1,0.2,0.3,0.5,0.5,0.8c0.4,0.4,1,0.8,1.6,0.8c0.6,0,1.3-0.3,1.7-0.8c0.3-0.5,0.5-1,0.5-1.7V4.6c-1.2,1.5-3.7,1.3-5.1-0.3
		c-1.5-1.6-1.5-4.3,0-5.9c1.5-1.5,3.7-1.7,5-0.3c0,0,0,0,0,0v-0.7h1.7V5c0,1.9-0.7,3-1.6,3.7c-0.6,0.5-1.5,0.7-2.3,0.7
		C258.2,9.3,257.3,9,256.6,8.4L256.6,8.4z M298.5,8.8L298.5,8.8l1.7-4l-3-6.9h1.7l2.1,4.9l2.1-4.9h1.7l-4.6,10.9H298.5L298.5,8.8z
		 M290.4,5L290.4,5c-0.5-0.5-0.7-1.2-0.7-1.9c0-0.6,0.2-1.2,0.6-1.6c0.7-0.7,1.7-1,2.8-1c0.7,0,1.3,0.1,1.8,0.4c0-1.2-1-1.7-1.8-1.7
		c-0.7,0-1.4,0.4-1.7,1.1l-1.5-0.6c0.3-0.7,1.1-2,3.1-2c1,0,2,0.3,2.6,1c0.6,0.7,0.8,1.5,0.8,2.6v4.2h-1.7V4.7
		c-0.2,0.3-0.6,0.5-0.9,0.7c-0.4,0.2-0.9,0.3-1.4,0.3C291.8,5.7,290.9,5.5,290.4,5L290.4,5z M237.1,1.4L237.1,1.4
		c0-2,1.5-4.2,4.2-4.2c2.6,0,4.2,2.2,4.2,4.2c0,2-1.5,4.2-4.2,4.2C238.6,5.6,237.1,3.4,237.1,1.4L237.1,1.4z M246.1,1.4L246.1,1.4
		c0-2,1.5-4.2,4.2-4.2c2.6,0,4.2,2.2,4.2,4.2c0,2-1.5,4.2-4.2,4.2C247.7,5.6,246.1,3.4,246.1,1.4L246.1,1.4z M225.8,3.6L225.8,3.6
		c-2.5-2.5-2.4-6.6,0.1-9.2c1.3-1.3,2.9-1.9,4.6-1.9c1.6,0,3.2,0.6,4.4,1.8l-1.2,1.3c-1.8-1.8-4.7-1.7-6.4,0.1
		c-1.8,1.9-1.8,4.8,0,6.7c1.8,1.9,4.8,2,6.6,0.1c0.6-0.6,0.8-1.4,0.9-2.2h-4.2v-1.8h5.9c0.1,0.4,0.1,0.9,0.1,1.4c0,1.5-0.6,3-1.6,4
		c-1.1,1.1-2.7,1.7-4.3,1.7C228.9,5.5,227.1,4.9,225.8,3.6L225.8,3.6z M268.1,4.3L268.1,4.3c-1.5-1.6-1.5-4.3,0-6
		c1.5-1.6,4-1.6,5.4,0c0.5,0.5,0.8,1.2,1.1,1.9l-5.5,2.3c0.3,0.7,1,1.3,2,1.3c0.9,0,1.5-0.3,2.1-1.2l1.5,1h0
		c-0.2,0.2-0.4,0.4-0.5,0.6C272.5,5.9,269.6,5.9,268.1,4.3L268.1,4.3z M278.5,5.5L278.5,5.5V-5.6h3.6c2.1,0,3.8,1.5,3.8,3.3
		s-1.5,3.3-3.4,3.3h-2.2v4.4H278.5L278.5,5.5z M286.9,5.5L286.9,5.5V-5.6h1.7V5.5H286.9L286.9,5.5z M264.3,5.3L264.3,5.3V-7.1h1.8
		V5.3H264.3L264.3,5.3z M294.8,2.2L294.8,2.2c-0.4-0.3-1-0.4-1.6-0.4c-1.2,0-1.9,0.6-1.9,1.3c0,0.7,0.7,1.1,1.4,1.1
		C293.7,4.2,294.8,3.4,294.8,2.2L294.8,2.2z M243.6,1.4L243.6,1.4c0-1.2-0.8-2.5-2.3-2.5c-1.5,0-2.3,1.3-2.3,2.5
		c0,1.2,0.8,2.5,2.3,2.5C242.7,3.9,243.6,2.6,243.6,1.4L243.6,1.4z M252.6,1.4L252.6,1.4c0-1.2-0.8-2.5-2.3-2.5
		c-1.5,0-2.3,1.3-2.3,2.5c0,1.2,0.8,2.5,2.3,2.5C251.8,3.9,252.6,2.6,252.6,1.4L252.6,1.4z M261.5,2.1L261.5,2.1
		c0-0.1,0-0.2,0.1-0.3c0,0,0,0,0,0c0-0.1,0-0.3,0-0.4c0-0.1,0-0.3,0-0.4c0,0,0-0.1,0-0.1c0-0.1-0.1-0.3-0.1-0.4
		c-0.3-1-1.2-1.7-2.1-1.7C258-1.2,257,0,257,1.4c0,1.4,1,2.5,2.3,2.5C260.3,3.9,261.1,3.2,261.5,2.1L261.5,2.1z M268.8,1.2
		L268.8,1.2l3.7-1.6c-0.4-0.7-1-0.9-1.5-0.9C269.5-1.2,268.6,0.4,268.8,1.2L268.8,1.2z M284.1-2.2L284.1-2.2c0-1-0.8-1.7-1.9-1.7h-2
		v3.5h2.1C283.3-0.4,284.1-1.2,284.1-2.2z"/>
	<polygon fill-rule="evenodd" clip-rule="evenodd" fill="#FFFFFF" points="299.8,6.8 299.8,6.8 299.7,6.8 299.7,6.8 299.7,6.7 
		299.7,6.7 299.8,6.7 299.8,6.7 299.7,6.7 299.7,6.7 299.7,6.8 299.7,6.8 	"/>
	<path fill-rule="evenodd" clip-rule="evenodd" fill="#FFFFFF" d="M299.8,6.8L299.8,6.8C299.8,6.7,299.8,6.7,299.8,6.8L299.8,6.8
		C299.8,6.7,299.8,6.7,299.8,6.8L299.8,6.8L299.8,6.8L299.8,6.8L299.8,6.8L299.8,6.8L299.8,6.8L299.8,6.8L299.8,6.8z M299.8,6.7
		L299.8,6.7C299.8,6.7,299.8,6.7,299.8,6.7L299.8,6.7L299.8,6.7L299.8,6.7C299.8,6.7,299.8,6.7,299.8,6.7L299.8,6.7z"/>
	<polygon fill-rule="evenodd" clip-rule="evenodd" fill="#FFFFFF" points="299.8,6.8 299.8,6.8 299.8,6.7 299.8,6.7 299.8,6.7 
		299.8,6.7 299.8,6.7 299.8,6.7 299.8,6.7 299.8,6.7 299.8,6.8 299.8,6.8 	"/>
	<path fill-rule="evenodd" clip-rule="evenodd" fill="#FFFFFF" d="M299.8,6.8L299.8,6.8L299.8,6.8L299.8,6.8L299.8,6.8L299.8,6.8
		L299.8,6.8L299.8,6.8L299.8,6.8L299.8,6.8z M299.8,6.7L299.8,6.7L299.8,6.7L299.8,6.7L299.8,6.7L299.8,6.7L299.8,6.7z"/>
	<polygon fill-rule="evenodd" clip-rule="evenodd" fill="#FFFFFF" points="299.8,6.7 299.8,6.7 299.8,6.7 299.8,6.7 299.8,6.8 
		299.8,6.8 299.8,6.7 299.8,6.7 	"/>
	<polygon fill-rule="evenodd" clip-rule="evenodd" fill="#FFFFFF" points="299.8,6.8 299.8,6.8 299.8,6.7 299.8,6.7 299.8,6.7 
		299.8,6.7 299.8,6.7 299.8,6.7 299.8,6.7 299.8,6.7 299.8,6.8 299.8,6.8 	"/>
	<path fill-rule="evenodd" clip-rule="evenodd" fill="#FFFFFF" d="M299.8,6.8L299.8,6.8C299.8,6.7,299.8,6.7,299.8,6.8L299.8,6.8
		L299.8,6.8L299.8,6.8C299.8,6.8,299.8,6.8,299.8,6.8L299.8,6.8z M299.8,6.8L299.8,6.8C299.8,6.8,299.8,6.8,299.8,6.8L299.8,6.8
		L299.8,6.8L299.8,6.8C299.8,6.7,299.8,6.7,299.8,6.8L299.8,6.8z"/>
	<path fill-rule="evenodd" clip-rule="evenodd" fill="#FFFFFF" d="M299.9,6.8L299.9,6.8C299.9,6.7,299.9,6.7,299.9,6.8
		C299.9,6.7,299.9,6.7,299.9,6.8L299.9,6.8C299.9,6.7,299.9,6.7,299.9,6.8L299.9,6.8L299.9,6.8L299.9,6.8
		C299.9,6.8,299.9,6.8,299.9,6.8L299.9,6.8z M299.9,6.7L299.9,6.7C299.9,6.7,299.9,6.7,299.9,6.7L299.9,6.7L299.9,6.7L299.9,6.7
		C299.9,6.7,299.9,6.7,299.9,6.7L299.9,6.7L299.9,6.7z M299.9,6.8L299.9,6.8C299.9,6.8,299.9,6.8,299.9,6.8L299.9,6.8L299.9,6.8
		L299.9,6.8C299.9,6.7,299.9,6.7,299.9,6.8L299.9,6.8z"/>
	<polygon fill-rule="evenodd" clip-rule="evenodd" fill="#FFFFFF" points="299.9,6.7 299.9,6.7 299.9,6.7 299.9,6.7 299.9,6.7 
		299.9,6.7 299.9,6.7 299.9,6.7 299.9,6.8 299.9,6.8 299.9,6.7 	"/>
	<polygon fill-rule="evenodd" clip-rule="evenodd" fill="#FFFFFF" points="299.9,6.8 299.9,6.8 299.9,6.7 299.9,6.7 299.9,6.8 
		299.9,6.8 	"/>
	<path fill-rule="evenodd" clip-rule="evenodd" fill="#FFFFFF" d="M299.9,6.8L299.9,6.8C299.9,6.7,299.9,6.7,299.9,6.8
		C299.9,6.7,299.9,6.7,299.9,6.8L299.9,6.8C299.9,6.8,299.9,6.8,299.9,6.8C299.9,6.8,299.9,6.8,299.9,6.8L299.9,6.8z M299.9,6.7
		L299.9,6.7C299.9,6.8,299.9,6.8,299.9,6.7C299.9,6.8,299.9,6.8,299.9,6.7L299.9,6.7C299.9,6.7,299.9,6.7,299.9,6.7
		C299.9,6.7,299.9,6.7,299.9,6.7L299.9,6.7z"/>
	<path fill-rule="evenodd" clip-rule="evenodd" fill="#FFFFFF" d="M299.9,6.8L299.9,6.8L299.9,6.8L299.9,6.8L299.9,6.8L299.9,6.8
		C299.9,6.8,299.9,6.8,299.9,6.8C299.9,6.8,299.9,6.8,299.9,6.8L299.9,6.8C299.9,6.7,299.9,6.7,299.9,6.8
		C299.9,6.7,299.9,6.7,299.9,6.8L299.9,6.8C299.9,6.7,299.9,6.7,299.9,6.8C299.9,6.7,299.9,6.7,299.9,6.8L299.9,6.8
		C299.9,6.8,299.9,6.8,299.9,6.8C299.9,6.8,299.9,6.8,299.9,6.8L299.9,6.8z"/>
	<path fill-rule="evenodd" clip-rule="evenodd" fill="#FFFFFF" d="M300,6.8L300,6.8C300,6.7,300,6.7,300,6.8
		C299.9,6.7,299.9,6.7,300,6.8L300,6.8C299.9,6.8,299.9,6.8,300,6.8C300,6.8,300,6.8,300,6.8L300,6.8z M300,6.7L300,6.7
		C300,6.8,300,6.8,300,6.7C300,6.8,299.9,6.8,300,6.7L300,6.7C299.9,6.7,300,6.7,300,6.7C300,6.7,300,6.7,300,6.7L300,6.7z"/>
	<polygon fill-rule="evenodd" clip-rule="evenodd" fill="#FFFFFF" points="300,6.8 300,6.7 300,6.7 300,6.7 300,6.7 300,6.7 
		300,6.8 300,6.8 300,6.7 300,6.7 300,6.8 300,6.8 300,6.7 300,6.7 300,6.8 	"/>
	<path fill-rule="evenodd" clip-rule="evenodd" fill="#FFFFFF" d="M300,6.8L300,6.8L300,6.8L300,6.8L300,6.8L300,6.8L300,6.8
		L300,6.8L300,6.8L300,6.8z M300,6.7L300,6.7L300,6.7L300,6.7C300,6.7,300,6.7,300,6.7C300,6.7,300,6.7,300,6.7L300,6.7z"/>
	<path fill-rule="evenodd" clip-rule="evenodd" fill="#FFFFFF" d="M300,6.8C300,6.7,300,6.7,300,6.8C300,6.7,300,6.7,300,6.8
		C300,6.7,300,6.7,300,6.8C300,6.7,300,6.7,300,6.8L300,6.8C300,6.7,300,6.7,300,6.8C300,6.7,300,6.7,300,6.8
		C300,6.7,300,6.7,300,6.8C300,6.7,300,6.7,300,6.8C300,6.8,300,6.8,300,6.8C300,6.8,300,6.8,300,6.8L300,6.8
		C300,6.8,300,6.8,300,6.8C300,6.8,300,6.8,300,6.8z"/>
	<polygon fill-rule="evenodd" clip-rule="evenodd" fill="#FFFFFF" points="300.1,6.7 300,6.7 300,6.7 300.1,6.7 300.1,6.8 
		300.1,6.8 300.1,6.7 300.1,6.7 	"/>
	<polygon fill-rule="evenodd" clip-rule="evenodd" fill="#FFFFFF" points="300.1,6.8 300.1,6.8 300.1,6.7 300.1,6.7 300.1,6.7 
		300.1,6.7 300.1,6.7 300.1,6.7 300.1,6.7 300.1,6.7 300.1,6.8 300.1,6.8 	"/>
	<path fill-rule="evenodd" clip-rule="evenodd" fill="#FFFFFF" d="M300.1,6.8L300.1,6.8C300.1,6.7,300.1,6.7,300.1,6.8L300.1,6.8
		C300.1,6.7,300.1,6.7,300.1,6.8L300.1,6.8L300.1,6.8L300.1,6.8L300.1,6.8L300.1,6.8L300.1,6.8L300.1,6.8L300.1,6.8z M300.1,6.7
		L300.1,6.7C300.1,6.7,300.1,6.7,300.1,6.7L300.1,6.7L300.1,6.7L300.1,6.7C300.1,6.7,300.1,6.7,300.1,6.7L300.1,6.7z"/>
	<path fill="#FFFFFF" d="M224.4-15.4c0-1.8,1.3-2.9,2.9-2.9c1.1,0,1.8,0.5,2.3,1.2l-0.8,0.5c-0.3-0.4-0.8-0.7-1.5-0.7
		c-1.1,0-1.9,0.8-1.9,2c0,1.2,0.8,2,1.9,2c0.6,0,1.1-0.3,1.3-0.5v-0.9H227v-0.9h2.7v2.1c-0.5,0.6-1.3,1-2.3,1
		C225.7-12.5,224.4-13.7,224.4-15.4z"/>
	<path fill="#FFFFFF" d="M230.9-12.6v-5.6h3.8v0.9h-2.9v1.4h2.8v0.9h-2.8v1.6h2.9v0.9L230.9-12.6L230.9-12.6z"/>
	<path fill="#FFFFFF" d="M237.5-12.6v-4.7h-1.7v-0.9h4.4v0.9h-1.7v4.7H237.5z"/>
	<path fill="#FFFFFF" d="M243.6-12.6v-5.6h1v5.6H243.6z"/>
	<path fill="#FFFFFF" d="M247.3-12.6v-4.7h-1.7v-0.9h4.4v0.9h-1.7v4.7H247.3z"/>
	<path fill="#FFFFFF" d="M253.2-15.4c0-1.7,1.2-2.9,2.9-2.9c1.7,0,2.9,1.2,2.9,2.9s-1.2,2.9-2.9,2.9
		C254.4-12.5,253.2-13.8,253.2-15.4z M257.9-15.4c0-1.2-0.7-2-1.9-2c-1.1,0-1.9,0.9-1.9,2c0,1.2,0.7,2,1.9,2
		C257.2-13.4,257.9-14.3,257.9-15.4z"/>
	<path fill="#FFFFFF" d="M264-12.6l-2.9-4v4h-1v-5.6h1l2.9,3.9v-3.9h1v5.6H264z"/>
</g>
</svg>
